<mxfile host="app.diagrams.net" agent="Mozilla/5.0 (X11; Linux x86_64) AppleWebKit/537.36 (KHTML, like Gecko) Chrome/135.0.0.0 Safari/537.36" version="26.2.14">
  <diagram name="Page-1" id="jAeMyVvUvlpc47Ef6Vpk">
    <mxGraphModel dx="1471" dy="659" grid="1" gridSize="10" guides="1" tooltips="1" connect="1" arrows="1" fold="1" page="1" pageScale="1" pageWidth="850" pageHeight="1100" math="0" shadow="0">
      <root>
        <mxCell id="0" />
        <mxCell id="1" parent="0" />
        <mxCell id="aVSm1G9aikjfA47LPS4C-1" value="VPC" style="points=[[0,0],[0.25,0],[0.5,0],[0.75,0],[1,0],[1,0.25],[1,0.5],[1,0.75],[1,1],[0.75,1],[0.5,1],[0.25,1],[0,1],[0,0.75],[0,0.5],[0,0.25]];outlineConnect=0;gradientColor=none;html=1;whiteSpace=wrap;fontSize=12;fontStyle=0;container=1;pointerEvents=0;collapsible=0;recursiveResize=0;shape=mxgraph.aws4.group;grIcon=mxgraph.aws4.group_vpc2;strokeColor=#8C4FFF;fillColor=none;verticalAlign=top;align=left;spacingLeft=30;fontColor=#AAB7B8;dashed=0;" parent="1" vertex="1">
          <mxGeometry x="140" y="220" width="540" height="480" as="geometry" />
        </mxCell>
        <mxCell id="aVSm1G9aikjfA47LPS4C-30" value="Private subnet" style="points=[[0,0],[0.25,0],[0.5,0],[0.75,0],[1,0],[1,0.25],[1,0.5],[1,0.75],[1,1],[0.75,1],[0.5,1],[0.25,1],[0,1],[0,0.75],[0,0.5],[0,0.25]];outlineConnect=0;gradientColor=none;html=1;whiteSpace=wrap;fontSize=12;fontStyle=0;container=1;pointerEvents=0;collapsible=0;recursiveResize=0;shape=mxgraph.aws4.group;grIcon=mxgraph.aws4.group_security_group;grStroke=0;strokeColor=#00A4A6;fillColor=#E6F6F7;verticalAlign=top;align=left;spacingLeft=30;fontColor=#147EBA;dashed=0;" parent="aVSm1G9aikjfA47LPS4C-1" vertex="1">
          <mxGeometry x="306.25" y="230" width="187.5" height="170" as="geometry" />
        </mxCell>
        <mxCell id="aVSm1G9aikjfA47LPS4C-47" style="edgeStyle=orthogonalEdgeStyle;rounded=0;orthogonalLoop=1;jettySize=auto;html=1;" parent="aVSm1G9aikjfA47LPS4C-30" source="aVSm1G9aikjfA47LPS4C-33" edge="1">
          <mxGeometry relative="1" as="geometry">
            <mxPoint x="151.75" y="30" as="targetPoint" />
            <Array as="points">
              <mxPoint x="151" y="30" />
            </Array>
          </mxGeometry>
        </mxCell>
        <mxCell id="aVSm1G9aikjfA47LPS4C-33" value="" style="sketch=0;points=[[0,0,0],[0.25,0,0],[0.5,0,0],[0.75,0,0],[1,0,0],[0,1,0],[0.25,1,0],[0.5,1,0],[0.75,1,0],[1,1,0],[0,0.25,0],[0,0.5,0],[0,0.75,0],[1,0.25,0],[1,0.5,0],[1,0.75,0]];outlineConnect=0;fontColor=#232F3E;fillColor=#ED7100;strokeColor=#ffffff;dashed=0;verticalLabelPosition=bottom;verticalAlign=top;align=center;html=1;fontSize=12;fontStyle=0;aspect=fixed;shape=mxgraph.aws4.resourceIcon;resIcon=mxgraph.aws4.ec2;" parent="aVSm1G9aikjfA47LPS4C-30" vertex="1">
          <mxGeometry x="126.25" y="60" width="50" height="50" as="geometry" />
        </mxCell>
        <mxCell id="aVSm1G9aikjfA47LPS4C-20" value="Availability zone" style="sketch=0;outlineConnect=0;gradientColor=none;html=1;whiteSpace=wrap;fontSize=12;fontStyle=0;shape=mxgraph.aws4.group;grIcon=mxgraph.aws4.group_availability_zone;strokeColor=#545B64;fillColor=none;verticalAlign=top;align=left;spacingLeft=30;fontColor=#545B64;dashed=1;" parent="aVSm1G9aikjfA47LPS4C-1" vertex="1">
          <mxGeometry x="40" y="70" width="230" height="350" as="geometry" />
        </mxCell>
        <mxCell id="aVSm1G9aikjfA47LPS4C-21" value="Availability zone" style="sketch=0;outlineConnect=0;gradientColor=none;html=1;whiteSpace=wrap;fontSize=12;fontStyle=0;shape=mxgraph.aws4.group;grIcon=mxgraph.aws4.group_availability_zone;strokeColor=#545B64;fillColor=none;verticalAlign=top;align=left;spacingLeft=30;fontColor=#545B64;dashed=1;" parent="aVSm1G9aikjfA47LPS4C-1" vertex="1">
          <mxGeometry x="285" y="70" width="230" height="350" as="geometry" />
        </mxCell>
        <mxCell id="aVSm1G9aikjfA47LPS4C-7" value="Public subnet" style="points=[[0,0],[0.25,0],[0.5,0],[0.75,0],[1,0],[1,0.25],[1,0.5],[1,0.75],[1,1],[0.75,1],[0.5,1],[0.25,1],[0,1],[0,0.75],[0,0.5],[0,0.25]];outlineConnect=0;gradientColor=none;html=1;whiteSpace=wrap;fontSize=12;fontStyle=0;container=1;pointerEvents=0;collapsible=0;recursiveResize=0;shape=mxgraph.aws4.group;grIcon=mxgraph.aws4.group_security_group;grStroke=0;strokeColor=#7AA116;fillColor=#F2F6E8;verticalAlign=top;align=left;spacingLeft=30;fontColor=#248814;dashed=0;" parent="aVSm1G9aikjfA47LPS4C-1" vertex="1">
          <mxGeometry x="72.5" y="110" width="165" height="110" as="geometry" />
        </mxCell>
        <mxCell id="aVSm1G9aikjfA47LPS4C-26" value="Public subnet" style="points=[[0,0],[0.25,0],[0.5,0],[0.75,0],[1,0],[1,0.25],[1,0.5],[1,0.75],[1,1],[0.75,1],[0.5,1],[0.25,1],[0,1],[0,0.75],[0,0.5],[0,0.25]];outlineConnect=0;gradientColor=none;html=1;whiteSpace=wrap;fontSize=12;fontStyle=0;container=1;pointerEvents=0;collapsible=0;recursiveResize=0;shape=mxgraph.aws4.group;grIcon=mxgraph.aws4.group_security_group;grStroke=0;strokeColor=#7AA116;fillColor=#F2F6E8;verticalAlign=top;align=left;spacingLeft=30;fontColor=#248814;dashed=0;" parent="aVSm1G9aikjfA47LPS4C-1" vertex="1">
          <mxGeometry x="317.5" y="110" width="165" height="110" as="geometry" />
        </mxCell>
        <mxCell id="aVSm1G9aikjfA47LPS4C-60" style="rounded=0;orthogonalLoop=1;jettySize=auto;html=1;edgeStyle=orthogonalEdgeStyle;" parent="aVSm1G9aikjfA47LPS4C-1" source="aVSm1G9aikjfA47LPS4C-18" target="aVSm1G9aikjfA47LPS4C-36" edge="1">
          <mxGeometry relative="1" as="geometry">
            <Array as="points">
              <mxPoint x="150" y="34" />
            </Array>
          </mxGeometry>
        </mxCell>
        <mxCell id="aVSm1G9aikjfA47LPS4C-18" value="ALB" style="sketch=0;outlineConnect=0;fontColor=#232F3E;gradientColor=none;fillColor=#8C4FFF;strokeColor=none;dashed=0;verticalLabelPosition=bottom;verticalAlign=top;align=center;html=1;fontSize=12;fontStyle=0;aspect=fixed;pointerEvents=1;shape=mxgraph.aws4.application_load_balancer;" parent="aVSm1G9aikjfA47LPS4C-1" vertex="1">
          <mxGeometry x="133" y="143" width="44" height="44" as="geometry" />
        </mxCell>
        <mxCell id="aVSm1G9aikjfA47LPS4C-61" style="rounded=0;orthogonalLoop=1;jettySize=auto;html=1;edgeStyle=orthogonalEdgeStyle;" parent="aVSm1G9aikjfA47LPS4C-1" source="aVSm1G9aikjfA47LPS4C-27" target="aVSm1G9aikjfA47LPS4C-36" edge="1">
          <mxGeometry relative="1" as="geometry">
            <Array as="points">
              <mxPoint x="430" y="165" />
              <mxPoint x="430" y="34" />
            </Array>
          </mxGeometry>
        </mxCell>
        <mxCell id="aVSm1G9aikjfA47LPS4C-27" value="ALB" style="sketch=0;outlineConnect=0;fontColor=#232F3E;gradientColor=none;fillColor=#8C4FFF;strokeColor=none;dashed=0;verticalLabelPosition=bottom;verticalAlign=top;align=center;html=1;fontSize=12;fontStyle=0;aspect=fixed;pointerEvents=1;shape=mxgraph.aws4.application_load_balancer;" parent="aVSm1G9aikjfA47LPS4C-1" vertex="1">
          <mxGeometry x="378" y="143" width="44" height="44" as="geometry" />
        </mxCell>
        <mxCell id="aVSm1G9aikjfA47LPS4C-19" value="Private subnet" style="points=[[0,0],[0.25,0],[0.5,0],[0.75,0],[1,0],[1,0.25],[1,0.5],[1,0.75],[1,1],[0.75,1],[0.5,1],[0.25,1],[0,1],[0,0.75],[0,0.5],[0,0.25]];outlineConnect=0;gradientColor=none;html=1;whiteSpace=wrap;fontSize=12;fontStyle=0;container=1;pointerEvents=0;collapsible=0;recursiveResize=0;shape=mxgraph.aws4.group;grIcon=mxgraph.aws4.group_security_group;grStroke=0;strokeColor=#00A4A6;fillColor=#E6F6F7;verticalAlign=top;align=left;spacingLeft=30;fontColor=#147EBA;dashed=0;" parent="aVSm1G9aikjfA47LPS4C-1" vertex="1">
          <mxGeometry x="62.5" y="230" width="187.5" height="170" as="geometry" />
        </mxCell>
        <mxCell id="aVSm1G9aikjfA47LPS4C-50" style="edgeStyle=orthogonalEdgeStyle;rounded=0;orthogonalLoop=1;jettySize=auto;html=1;" parent="aVSm1G9aikjfA47LPS4C-1" source="aVSm1G9aikjfA47LPS4C-31" edge="1">
          <mxGeometry relative="1" as="geometry">
            <mxPoint x="110" y="260" as="targetPoint" />
            <Array as="points" />
          </mxGeometry>
        </mxCell>
        <mxCell id="aVSm1G9aikjfA47LPS4C-31" value="" style="sketch=0;points=[[0,0,0],[0.25,0,0],[0.5,0,0],[0.75,0,0],[1,0,0],[0,1,0],[0.25,1,0],[0.5,1,0],[0.75,1,0],[1,1,0],[0,0.25,0],[0,0.5,0],[0,0.75,0],[1,0.25,0],[1,0.5,0],[1,0.75,0]];outlineConnect=0;fontColor=#232F3E;fillColor=#ED7100;strokeColor=#ffffff;dashed=0;verticalLabelPosition=bottom;verticalAlign=top;align=center;html=1;fontSize=12;fontStyle=0;aspect=fixed;shape=mxgraph.aws4.resourceIcon;resIcon=mxgraph.aws4.ec2;" parent="aVSm1G9aikjfA47LPS4C-1" vertex="1">
          <mxGeometry x="83" y="290" width="50" height="50" as="geometry" />
        </mxCell>
        <mxCell id="aVSm1G9aikjfA47LPS4C-49" style="edgeStyle=orthogonalEdgeStyle;rounded=0;orthogonalLoop=1;jettySize=auto;html=1;" parent="aVSm1G9aikjfA47LPS4C-1" source="aVSm1G9aikjfA47LPS4C-35" edge="1">
          <mxGeometry relative="1" as="geometry">
            <mxPoint x="342.5" y="260" as="targetPoint" />
          </mxGeometry>
        </mxCell>
        <mxCell id="aVSm1G9aikjfA47LPS4C-35" value="" style="sketch=0;points=[[0,0,0],[0.25,0,0],[0.5,0,0],[0.75,0,0],[1,0,0],[0,1,0],[0.25,1,0],[0.5,1,0],[0.75,1,0],[1,1,0],[0,0.25,0],[0,0.5,0],[0,0.75,0],[1,0.25,0],[1,0.5,0],[1,0.75,0]];outlineConnect=0;fontColor=#232F3E;fillColor=#ED7100;strokeColor=#ffffff;dashed=0;verticalLabelPosition=bottom;verticalAlign=top;align=center;html=1;fontSize=12;fontStyle=0;aspect=fixed;shape=mxgraph.aws4.resourceIcon;resIcon=mxgraph.aws4.ec2;" parent="aVSm1G9aikjfA47LPS4C-1" vertex="1">
          <mxGeometry x="317.5" y="290" width="50" height="50" as="geometry" />
        </mxCell>
        <mxCell id="aVSm1G9aikjfA47LPS4C-48" style="edgeStyle=orthogonalEdgeStyle;rounded=0;orthogonalLoop=1;jettySize=auto;html=1;" parent="aVSm1G9aikjfA47LPS4C-1" source="aVSm1G9aikjfA47LPS4C-34" edge="1">
          <mxGeometry relative="1" as="geometry">
            <mxPoint x="403" y="260" as="targetPoint" />
          </mxGeometry>
        </mxCell>
        <mxCell id="aVSm1G9aikjfA47LPS4C-34" value="" style="sketch=0;points=[[0,0,0],[0.25,0,0],[0.5,0,0],[0.75,0,0],[1,0,0],[0,1,0],[0.25,1,0],[0.5,1,0],[0.75,1,0],[1,1,0],[0,0.25,0],[0,0.5,0],[0,0.75,0],[1,0.25,0],[1,0.5,0],[1,0.75,0]];outlineConnect=0;fontColor=#232F3E;fillColor=#ED7100;strokeColor=#ffffff;dashed=0;verticalLabelPosition=bottom;verticalAlign=top;align=center;html=1;fontSize=12;fontStyle=0;aspect=fixed;shape=mxgraph.aws4.resourceIcon;resIcon=mxgraph.aws4.ec2;" parent="aVSm1G9aikjfA47LPS4C-1" vertex="1">
          <mxGeometry x="378" y="340" width="50" height="50" as="geometry" />
        </mxCell>
        <mxCell id="aVSm1G9aikjfA47LPS4C-45" style="edgeStyle=orthogonalEdgeStyle;rounded=0;orthogonalLoop=1;jettySize=auto;html=1;" parent="aVSm1G9aikjfA47LPS4C-1" source="aVSm1G9aikjfA47LPS4C-32" edge="1">
          <mxGeometry relative="1" as="geometry">
            <mxPoint x="202" y="260" as="targetPoint" />
          </mxGeometry>
        </mxCell>
        <mxCell id="aVSm1G9aikjfA47LPS4C-32" value="" style="sketch=0;points=[[0,0,0],[0.25,0,0],[0.5,0,0],[0.75,0,0],[1,0,0],[0,1,0],[0.25,1,0],[0.5,1,0],[0.75,1,0],[1,1,0],[0,0.25,0],[0,0.5,0],[0,0.75,0],[1,0.25,0],[1,0.5,0],[1,0.75,0]];outlineConnect=0;fontColor=#232F3E;fillColor=#ED7100;strokeColor=#ffffff;dashed=0;verticalLabelPosition=bottom;verticalAlign=top;align=center;html=1;fontSize=12;fontStyle=0;aspect=fixed;shape=mxgraph.aws4.resourceIcon;resIcon=mxgraph.aws4.ec2;" parent="aVSm1G9aikjfA47LPS4C-1" vertex="1">
          <mxGeometry x="177" y="290" width="50" height="50" as="geometry" />
        </mxCell>
        <mxCell id="aVSm1G9aikjfA47LPS4C-36" value="" style="sketch=0;outlineConnect=0;fontColor=#232F3E;gradientColor=none;fillColor=#8C4FFF;strokeColor=none;dashed=0;verticalLabelPosition=bottom;verticalAlign=top;align=center;html=1;fontSize=12;fontStyle=0;aspect=fixed;pointerEvents=1;shape=mxgraph.aws4.internet_gateway;" parent="aVSm1G9aikjfA47LPS4C-1" vertex="1">
          <mxGeometry x="250" y="10" width="48" height="48" as="geometry" />
        </mxCell>
        <mxCell id="aVSm1G9aikjfA47LPS4C-59" value="" style="endArrow=none;html=1;rounded=0;" parent="aVSm1G9aikjfA47LPS4C-1" edge="1">
          <mxGeometry width="50" height="50" relative="1" as="geometry">
            <mxPoint x="100" y="260" as="sourcePoint" />
            <mxPoint x="470" y="260" as="targetPoint" />
          </mxGeometry>
        </mxCell>
        <mxCell id="aVSm1G9aikjfA47LPS4C-51" value="" style="endArrow=classic;html=1;rounded=0;edgeStyle=orthogonalEdgeStyle;" parent="1" target="aVSm1G9aikjfA47LPS4C-18" edge="1">
          <mxGeometry width="50" height="50" relative="1" as="geometry">
            <mxPoint x="420" y="480" as="sourcePoint" />
            <mxPoint x="520" y="410" as="targetPoint" />
            <Array as="points">
              <mxPoint x="420" y="385" />
            </Array>
          </mxGeometry>
        </mxCell>
        <mxCell id="aVSm1G9aikjfA47LPS4C-6" value="devices" style="sketch=0;outlineConnect=0;gradientColor=none;fontColor=#545B64;strokeColor=none;fillColor=#879196;dashed=0;verticalLabelPosition=bottom;verticalAlign=top;align=center;html=1;fontSize=12;fontStyle=0;aspect=fixed;shape=mxgraph.aws4.illustration_devices;pointerEvents=1" parent="1" vertex="1">
          <mxGeometry x="370" y="80" width="82.19" height="60" as="geometry" />
        </mxCell>
        <mxCell id="aVSm1G9aikjfA47LPS4C-52" value="" style="endArrow=classic;html=1;rounded=0;edgeStyle=orthogonalEdgeStyle;" parent="1" target="aVSm1G9aikjfA47LPS4C-27" edge="1">
          <mxGeometry width="50" height="50" relative="1" as="geometry">
            <mxPoint x="420" y="480" as="sourcePoint" />
            <mxPoint x="327" y="395" as="targetPoint" />
            <Array as="points">
              <mxPoint x="420" y="385" />
            </Array>
          </mxGeometry>
        </mxCell>
        <mxCell id="BskEQ_NNFlzsLP7Rxej2-1" value="" style="rounded=0;orthogonalLoop=1;jettySize=auto;html=1;" edge="1" parent="1" source="aVSm1G9aikjfA47LPS4C-36" target="aVSm1G9aikjfA47LPS4C-6">
          <mxGeometry relative="1" as="geometry" />
        </mxCell>
      </root>
    </mxGraphModel>
  </diagram>
</mxfile>
